<?xml version="1.0" encoding="UTF-8" standalone="no"?>
<!DOCTYPE svg PUBLIC "-//W3C//DTD SVG 1.1//EN"
 "http://www.w3.org/Graphics/SVG/1.1/DTD/svg11.dtd">
<!-- Generated by graphviz version 14.0.2 (20251019.1705)
 -->
<!-- Title: ObjectGraph Pages: 1 -->
<svg width="688pt" height="944pt"
 viewBox="0.00 0.00 688.00 944.00" xmlns="http://www.w3.org/2000/svg" xmlns:xlink="http://www.w3.org/1999/xlink">
<g id="graph0" class="graph" transform="scale(1 1) rotate(0) translate(4 940)">
<title>ObjectGraph</title>
<polygon fill="white" stroke="none" points="-4,4 -4,-940 683.75,-940 683.75,4 -4,4"/>
<g id="clust1" class="cluster">
<title>cluster_ArrayList</title>
<path fill="none" stroke="black" d="M406.75,-233C406.75,-233 460.5,-233 460.5,-233 466.5,-233 472.5,-239 472.5,-245 472.5,-245 472.5,-298 472.5,-298 472.5,-304 466.5,-310 460.5,-310 460.5,-310 406.75,-310 406.75,-310 400.75,-310 394.75,-304 394.75,-298 394.75,-298 394.75,-245 394.75,-245 394.75,-239 400.75,-233 406.75,-233"/>
<text xml:space="preserve" text-anchor="middle" x="433.62" y="-292.7" font-family="Times,serif" font-size="14.00">ArrayList</text>
</g>
<g id="clust2" class="cluster">
<title>cluster_Book</title>
<path fill="none" stroke="black" d="M205.25,-765C205.25,-765 259,-765 259,-765 265,-765 271,-771 271,-777 271,-777 271,-916 271,-916 271,-922 265,-928 259,-928 259,-928 205.25,-928 205.25,-928 199.25,-928 193.25,-922 193.25,-916 193.25,-916 193.25,-777 193.25,-777 193.25,-771 199.25,-765 205.25,-765"/>
<text xml:space="preserve" text-anchor="middle" x="232.12" y="-910.7" font-family="Times,serif" font-size="14.00">Book</text>
</g>
<g id="clust3" class="cluster">
<title>cluster_Iterator</title>
<path fill="none" stroke="black" d="M209.12,-637C209.12,-637 255.12,-637 255.12,-637 261.12,-637 267.12,-643 267.12,-649 267.12,-649 267.12,-745 267.12,-745 267.12,-751 261.12,-757 255.12,-757 255.12,-757 209.12,-757 209.12,-757 203.12,-757 197.12,-751 197.12,-745 197.12,-745 197.12,-649 197.12,-649 197.12,-643 203.12,-637 209.12,-637"/>
<text xml:space="preserve" text-anchor="middle" x="232.12" y="-739.7" font-family="Times,serif" font-size="14.00">Iterator</text>
</g>
<g id="clust4" class="cluster">
<title>cluster_Librarian</title>
<path fill="none" stroke="black" d="M204.88,-365C204.88,-365 259.38,-365 259.38,-365 265.38,-365 271.38,-371 271.38,-377 271.38,-377 271.38,-473 271.38,-473 271.38,-479 265.38,-485 259.38,-485 259.38,-485 204.88,-485 204.88,-485 198.88,-485 192.88,-479 192.88,-473 192.88,-473 192.88,-377 192.88,-377 192.88,-371 198.88,-365 204.88,-365"/>
<text xml:space="preserve" text-anchor="middle" x="232.12" y="-467.7" font-family="Times,serif" font-size="14.00">Librarian</text>
</g>
<g id="clust5" class="cluster">
<title>cluster_Library</title>
<path fill="none" stroke="black" d="M205.25,-109C205.25,-109 259,-109 259,-109 265,-109 271,-115 271,-121 271,-121 271,-260 271,-260 271,-266 265,-272 259,-272 259,-272 205.25,-272 205.25,-272 199.25,-272 193.25,-266 193.25,-260 193.25,-260 193.25,-121 193.25,-121 193.25,-115 199.25,-109 205.25,-109"/>
<text xml:space="preserve" text-anchor="middle" x="232.12" y="-254.7" font-family="Times,serif" font-size="14.00">Library</text>
</g>
<g id="clust6" class="cluster">
<title>cluster_LibraryItem</title>
<path fill="none" stroke="black" d="M399.25,-450C399.25,-450 468,-450 468,-450 474,-450 480,-456 480,-462 480,-462 480,-601 480,-601 480,-607 474,-613 468,-613 468,-613 399.25,-613 399.25,-613 393.25,-613 387.25,-607 387.25,-601 387.25,-601 387.25,-462 387.25,-462 387.25,-456 393.25,-450 399.25,-450"/>
<text xml:space="preserve" text-anchor="middle" x="433.62" y="-595.7" font-family="Times,serif" font-size="14.00">LibraryItem</text>
</g>
<g id="clust7" class="cluster">
<title>cluster_List</title>
<path fill="none" stroke="black" d="M410.62,-80C410.62,-80 456.62,-80 456.62,-80 462.62,-80 468.62,-86 468.62,-92 468.62,-92 468.62,-188 468.62,-188 468.62,-194 462.62,-200 456.62,-200 456.62,-200 410.62,-200 410.62,-200 404.62,-200 398.62,-194 398.62,-188 398.62,-188 398.62,-92 398.62,-92 398.62,-86 404.62,-80 410.62,-80"/>
<text xml:space="preserve" text-anchor="middle" x="433.62" y="-182.7" font-family="Times,serif" font-size="14.00">List</text>
</g>
<g id="clust8" class="cluster">
<title>cluster_Magazine</title>
<path fill="none" stroke="black" d="M205.25,-493C205.25,-493 259,-493 259,-493 265,-493 271,-499 271,-505 271,-505 271,-601 271,-601 271,-607 265,-613 259,-613 259,-613 205.25,-613 205.25,-613 199.25,-613 193.25,-607 193.25,-601 193.25,-601 193.25,-505 193.25,-505 193.25,-499 199.25,-493 205.25,-493"/>
<text xml:space="preserve" text-anchor="middle" x="232.12" y="-595.7" font-family="Times,serif" font-size="14.00">Magazine</text>
</g>
<g id="clust9" class="cluster">
<title>cluster_Main</title>
<path fill="none" stroke="black" d="M20,-365C20,-365 66,-365 66,-365 72,-365 78,-371 78,-377 78,-377 78,-430 78,-430 78,-436 72,-442 66,-442 66,-442 20,-442 20,-442 14,-442 8,-436 8,-430 8,-430 8,-377 8,-377 8,-371 14,-365 20,-365"/>
<text xml:space="preserve" text-anchor="middle" x="43" y="-424.7" font-family="Times,serif" font-size="14.00">Main</text>
</g>
<g id="clust10" class="cluster">
<title>cluster_Member</title>
<path fill="none" stroke="black" d="M205.25,-280C205.25,-280 259,-280 259,-280 265,-280 271,-286 271,-292 271,-292 271,-345 271,-345 271,-351 265,-357 259,-357 259,-357 205.25,-357 205.25,-357 199.25,-357 193.25,-351 193.25,-345 193.25,-345 193.25,-292 193.25,-292 193.25,-286 199.25,-280 205.25,-280"/>
<text xml:space="preserve" text-anchor="middle" x="232.12" y="-339.7" font-family="Times,serif" font-size="14.00">Member</text>
</g>
<g id="clust11" class="cluster">
<title>cluster_Object</title>
<path fill="none" stroke="black" d="M606,-341C606,-341 659.75,-341 659.75,-341 665.75,-341 671.75,-347 671.75,-353 671.75,-353 671.75,-406 671.75,-406 671.75,-412 665.75,-418 659.75,-418 659.75,-418 606,-418 606,-418 600,-418 594,-412 594,-406 594,-406 594,-353 594,-353 594,-347 600,-341 606,-341"/>
<text xml:space="preserve" text-anchor="middle" x="632.88" y="-400.7" font-family="Times,serif" font-size="14.00">Object</text>
</g>
<g id="clust12" class="cluster">
<title>cluster_PrintStream</title>
<path fill="none" stroke="black" d="M204,-8C204,-8 261.25,-8 261.25,-8 267.25,-8 273.25,-14 273.25,-20 273.25,-20 273.25,-73 273.25,-73 273.25,-79 267.25,-85 261.25,-85 261.25,-85 204,-85 204,-85 198,-85 192,-79 192,-73 192,-73 192,-20 192,-20 192,-14 198,-8 204,-8"/>
<text xml:space="preserve" text-anchor="middle" x="232.62" y="-67.7" font-family="Times,serif" font-size="14.00">PrintStream</text>
</g>
<g id="clust13" class="cluster">
<title>cluster_User</title>
<path fill="none" stroke="black" d="M406.75,-341C406.75,-341 460.5,-341 460.5,-341 466.5,-341 472.5,-347 472.5,-353 472.5,-353 472.5,-406 472.5,-406 472.5,-412 466.5,-418 460.5,-418 460.5,-418 406.75,-418 406.75,-418 400.75,-418 394.75,-412 394.75,-406 394.75,-406 394.75,-353 394.75,-353 394.75,-347 400.75,-341 406.75,-341"/>
<text xml:space="preserve" text-anchor="middle" x="433.62" y="-400.7" font-family="Times,serif" font-size="14.00">User</text>
</g>
<!-- ArrayList.constructor -->
<g id="node1" class="node">
<title>ArrayList.constructor</title>
<polygon fill="none" stroke="black" points="464.5,-277 402.75,-277 402.75,-241 464.5,-241 464.5,-277"/>
<text xml:space="preserve" text-anchor="middle" x="433.62" y="-255.12" font-family="Times,serif" font-size="10.00">constructor</text>
</g>
<!-- Book.borrow -->
<g id="node2" class="node">
<title>Book.borrow</title>
<polygon fill="none" stroke="black" points="259.12,-809 205.12,-809 205.12,-773 259.12,-773 259.12,-809"/>
<text xml:space="preserve" text-anchor="middle" x="232.12" y="-787.12" font-family="Times,serif" font-size="10.00">borrow</text>
</g>
<!-- Book.constructor -->
<g id="node3" class="node">
<title>Book.constructor</title>
<polygon fill="none" stroke="black" points="263,-895 201.25,-895 201.25,-859 263,-859 263,-895"/>
<text xml:space="preserve" text-anchor="middle" x="232.12" y="-873.12" font-family="Times,serif" font-size="10.00">constructor</text>
</g>
<!-- LibraryItem.constructor -->
<g id="node12" class="node">
<title>LibraryItem.constructor</title>
<polygon fill="none" stroke="black" points="464.5,-580 402.75,-580 402.75,-544 464.5,-544 464.5,-580"/>
<text xml:space="preserve" text-anchor="middle" x="433.62" y="-558.12" font-family="Times,serif" font-size="10.00">constructor</text>
</g>
<!-- Book.constructor&#45;&gt;LibraryItem.constructor -->
<g id="edge1" class="edge">
<title>Book.constructor&#45;&gt;LibraryItem.constructor</title>
<path fill="none" stroke="black" d="M263.4,-862.93C266.95,-860.57 270.33,-857.93 273.25,-855 352.6,-775.38 403.25,-648.03 423.1,-591.12"/>
<polygon fill="black" stroke="black" points="426.35,-592.43 426.28,-581.83 419.73,-590.16 426.35,-592.43"/>
</g>
<!-- Book.getType -->
<g id="node4" class="node">
<title>Book.getType</title>
<polygon fill="none" stroke="black" points="259.12,-852 205.12,-852 205.12,-816 259.12,-816 259.12,-852"/>
<text xml:space="preserve" text-anchor="middle" x="232.12" y="-830.12" font-family="Times,serif" font-size="10.00">getType</text>
</g>
<!-- Iterator.hasNext -->
<g id="node5" class="node">
<title>Iterator.hasNext</title>
<polygon fill="none" stroke="black" points="259.12,-681 205.12,-681 205.12,-645 259.12,-645 259.12,-681"/>
<text xml:space="preserve" text-anchor="middle" x="232.12" y="-659.12" font-family="Times,serif" font-size="10.00">hasNext</text>
</g>
<!-- Iterator.next -->
<g id="node6" class="node">
<title>Iterator.next</title>
<polygon fill="none" stroke="black" points="259.12,-724 205.12,-724 205.12,-688 259.12,-688 259.12,-724"/>
<text xml:space="preserve" text-anchor="middle" x="232.12" y="-702.12" font-family="Times,serif" font-size="10.00">next</text>
</g>
<!-- Librarian.constructor -->
<g id="node7" class="node">
<title>Librarian.constructor</title>
<polygon fill="none" stroke="black" points="263,-409 201.25,-409 201.25,-373 263,-373 263,-409"/>
<text xml:space="preserve" text-anchor="middle" x="232.12" y="-387.12" font-family="Times,serif" font-size="10.00">constructor</text>
</g>
<!-- User.constructor -->
<g id="node23" class="node">
<title>User.constructor</title>
<polygon fill="none" stroke="black" points="464.5,-385 402.75,-385 402.75,-349 464.5,-349 464.5,-385"/>
<text xml:space="preserve" text-anchor="middle" x="433.62" y="-363.12" font-family="Times,serif" font-size="10.00">constructor</text>
</g>
<!-- Librarian.constructor&#45;&gt;User.constructor -->
<g id="edge2" class="edge">
<title>Librarian.constructor&#45;&gt;User.constructor</title>
<path fill="none" stroke="black" d="M263.42,-387.35C297.51,-383.26 353.06,-376.57 391.15,-371.99"/>
<polygon fill="black" stroke="black" points="391.35,-375.49 400.86,-370.82 390.52,-368.54 391.35,-375.49"/>
</g>
<!-- Librarian.updateTitle -->
<g id="node8" class="node">
<title>Librarian.updateTitle</title>
<polygon fill="none" stroke="black" points="263.38,-452 200.88,-452 200.88,-416 263.38,-416 263.38,-452"/>
<text xml:space="preserve" text-anchor="middle" x="232.12" y="-430.12" font-family="Times,serif" font-size="10.00">updateTitle</text>
</g>
<!-- LibraryItem.setTitle -->
<g id="node14" class="node">
<title>LibraryItem.setTitle</title>
<polygon fill="none" stroke="black" points="460.62,-494 406.62,-494 406.62,-458 460.62,-458 460.62,-494"/>
<text xml:space="preserve" text-anchor="middle" x="433.62" y="-472.12" font-family="Times,serif" font-size="10.00">setTitle</text>
</g>
<!-- Librarian.updateTitle&#45;&gt;LibraryItem.setTitle -->
<g id="edge3" class="edge">
<title>Librarian.updateTitle&#45;&gt;LibraryItem.setTitle</title>
<path fill="none" stroke="black" d="M263.86,-440.47C299.22,-447.92 357.28,-460.14 395.23,-468.13"/>
<polygon fill="black" stroke="black" points="394.33,-471.51 404.84,-470.15 395.77,-464.66 394.33,-471.51"/>
</g>
<!-- Library.addItem -->
<g id="node9" class="node">
<title>Library.addItem</title>
<polygon fill="none" stroke="black" points="259.12,-196 205.12,-196 205.12,-160 259.12,-160 259.12,-196"/>
<text xml:space="preserve" text-anchor="middle" x="232.12" y="-174.12" font-family="Times,serif" font-size="10.00">addItem</text>
</g>
<!-- List.add -->
<g id="node15" class="node">
<title>List.add</title>
<polygon fill="none" stroke="black" points="460.62,-167 406.62,-167 406.62,-131 460.62,-131 460.62,-167"/>
<text xml:space="preserve" text-anchor="middle" x="433.62" y="-145.12" font-family="Times,serif" font-size="10.00">add</text>
</g>
<!-- Library.addItem&#45;&gt;List.add -->
<g id="edge6" class="edge">
<title>Library.addItem&#45;&gt;List.add</title>
<path fill="none" stroke="black" d="M259.62,-174.15C294.37,-169.1 355.56,-160.2 395.07,-154.46"/>
<polygon fill="black" stroke="black" points="395.45,-157.94 404.84,-153.04 394.44,-151.01 395.45,-157.94"/>
</g>
<!-- Library.constructor -->
<g id="node10" class="node">
<title>Library.constructor</title>
<polygon fill="none" stroke="black" points="263,-239 201.25,-239 201.25,-203 263,-203 263,-239"/>
<text xml:space="preserve" text-anchor="middle" x="232.12" y="-217.12" font-family="Times,serif" font-size="10.00">constructor</text>
</g>
<!-- Library.constructor&#45;&gt;ArrayList.constructor -->
<g id="edge4" class="edge">
<title>Library.constructor&#45;&gt;ArrayList.constructor</title>
<path fill="none" stroke="black" d="M263.42,-226.77C297.51,-233.26 353.06,-243.84 391.15,-251.1"/>
<polygon fill="black" stroke="black" points="390.4,-254.52 400.88,-252.95 391.71,-247.64 390.4,-254.52"/>
</g>
<!-- Object.constructor -->
<g id="node21" class="node">
<title>Object.constructor</title>
<polygon fill="none" stroke="black" points="663.75,-385 602,-385 602,-349 663.75,-349 663.75,-385"/>
<text xml:space="preserve" text-anchor="middle" x="632.88" y="-363.12" font-family="Times,serif" font-size="10.00">constructor</text>
</g>
<!-- Library.constructor&#45;&gt;Object.constructor -->
<g id="edge5" class="edge">
<title>Library.constructor&#45;&gt;Object.constructor</title>
<path fill="none" stroke="black" d="M263.37,-216.08C311.32,-209.62 406.85,-202.31 480,-232 535.93,-254.7 584.95,-307.37 611.3,-339.8"/>
<polygon fill="black" stroke="black" points="608.52,-341.93 617.49,-347.58 614,-337.57 608.52,-341.93"/>
</g>
<!-- Library.listItems -->
<g id="node11" class="node">
<title>Library.listItems</title>
<polygon fill="none" stroke="black" points="259.12,-153 205.12,-153 205.12,-117 259.12,-117 259.12,-153"/>
<text xml:space="preserve" text-anchor="middle" x="232.12" y="-131.12" font-family="Times,serif" font-size="10.00">listItems</text>
</g>
<!-- LibraryItem.constructor&#45;&gt;Object.constructor -->
<g id="edge7" class="edge">
<title>LibraryItem.constructor&#45;&gt;Object.constructor</title>
<path fill="none" stroke="black" d="M464.91,-549.42C470.16,-546.66 475.4,-543.5 480,-540 536.04,-497.32 586.9,-431.41 613.16,-394.48"/>
<polygon fill="black" stroke="black" points="615.84,-396.75 618.72,-386.55 610.11,-392.73 615.84,-396.75"/>
</g>
<!-- LibraryItem.getDescription -->
<g id="node13" class="node">
<title>LibraryItem.getDescription</title>
<polygon fill="none" stroke="black" points="472,-537 395.25,-537 395.25,-501 472,-501 472,-537"/>
<text xml:space="preserve" text-anchor="middle" x="433.62" y="-515.12" font-family="Times,serif" font-size="10.00">getDescription</text>
</g>
<!-- LibraryItem.getDescription&#45;&gt;Book.getType -->
<g id="edge8" class="edge">
<title>LibraryItem.getDescription&#45;&gt;Book.getType</title>
<path fill="none" stroke="black" d="M394.93,-534.44C392.15,-536.4 389.54,-538.59 387.25,-541 297.35,-635.82 360.75,-714.96 273.25,-812 271.81,-813.59 270.23,-815.09 268.56,-816.51"/>
<polygon fill="black" stroke="black" points="266.98,-813.34 260.81,-821.95 271.01,-819.06 266.98,-813.34"/>
</g>
<!-- Magazine.getType -->
<g id="node18" class="node">
<title>Magazine.getType</title>
<polygon fill="none" stroke="black" points="259.12,-537 205.12,-537 205.12,-501 259.12,-501 259.12,-537"/>
<text xml:space="preserve" text-anchor="middle" x="232.12" y="-515.12" font-family="Times,serif" font-size="10.00">getType</text>
</g>
<!-- LibraryItem.getDescription&#45;&gt;Magazine.getType -->
<g id="edge9" class="edge">
<title>LibraryItem.getDescription&#45;&gt;Magazine.getType</title>
<path fill="none" stroke="black" d="M394.76,-519C359.25,-519 306.44,-519 270.94,-519"/>
<polygon fill="black" stroke="black" points="271.13,-515.5 261.13,-519 271.13,-522.5 271.13,-515.5"/>
</g>
<!-- List.iterator -->
<g id="node16" class="node">
<title>List.iterator</title>
<polygon fill="none" stroke="black" points="460.62,-124 406.62,-124 406.62,-88 460.62,-88 460.62,-124"/>
<text xml:space="preserve" text-anchor="middle" x="433.62" y="-102.12" font-family="Times,serif" font-size="10.00">iterator</text>
</g>
<!-- Magazine.constructor -->
<g id="node17" class="node">
<title>Magazine.constructor</title>
<polygon fill="none" stroke="black" points="263,-580 201.25,-580 201.25,-544 263,-544 263,-580"/>
<text xml:space="preserve" text-anchor="middle" x="232.12" y="-558.12" font-family="Times,serif" font-size="10.00">constructor</text>
</g>
<!-- Magazine.constructor&#45;&gt;LibraryItem.constructor -->
<g id="edge10" class="edge">
<title>Magazine.constructor&#45;&gt;LibraryItem.constructor</title>
<path fill="none" stroke="black" d="M263.42,-562C297.51,-562 353.06,-562 391.15,-562"/>
<polygon fill="black" stroke="black" points="390.85,-565.5 400.85,-562 390.85,-558.5 390.85,-565.5"/>
</g>
<!-- Main.main -->
<g id="node19" class="node">
<title>Main.main</title>
<polygon fill="none" stroke="black" points="70,-409 16,-409 16,-373 70,-373 70,-409"/>
<text xml:space="preserve" text-anchor="middle" x="43" y="-387.12" font-family="Times,serif" font-size="10.00">main</text>
</g>
<!-- Main.main&#45;&gt;Book.borrow -->
<g id="edge12" class="edge">
<title>Main.main&#45;&gt;Book.borrow</title>
<path fill="none" stroke="black" d="M48.04,-409.34C61.14,-465.76 106.58,-640.03 192,-758 193.69,-760.33 195.57,-762.6 197.58,-764.78"/>
<polygon fill="black" stroke="black" points="195.07,-767.23 204.68,-771.7 199.96,-762.21 195.07,-767.23"/>
</g>
<!-- Main.main&#45;&gt;Book.constructor -->
<g id="edge11" class="edge">
<title>Main.main&#45;&gt;Book.constructor</title>
<path fill="none" stroke="black" d="M45.12,-409.19C50.11,-476.1 75.57,-712.1 192,-855 192.24,-855.29 192.48,-855.59 192.73,-855.87"/>
<polygon fill="black" stroke="black" points="190.15,-858.26 199.94,-862.33 194.83,-853.05 190.15,-858.26"/>
</g>
<!-- Main.main&#45;&gt;Iterator.hasNext -->
<g id="edge13" class="edge">
<title>Main.main&#45;&gt;Iterator.hasNext</title>
<path fill="none" stroke="black" d="M52.83,-409.39C73.49,-451.28 128.05,-555.94 192,-630 194.07,-632.4 196.32,-634.76 198.66,-637.07"/>
<polygon fill="black" stroke="black" points="196,-639.37 205.73,-643.56 200.73,-634.21 196,-639.37"/>
</g>
<!-- Main.main&#45;&gt;Iterator.next -->
<g id="edge14" class="edge">
<title>Main.main&#45;&gt;Iterator.next</title>
<path fill="none" stroke="black" d="M49.12,-409.36C63.8,-459.12 110.26,-598.54 192,-684 193.14,-685.2 194.37,-686.35 195.65,-687.45"/>
<polygon fill="black" stroke="black" points="193.36,-690.11 203.51,-693.14 197.47,-684.44 193.36,-690.11"/>
</g>
<!-- Main.main&#45;&gt;Librarian.constructor -->
<g id="edge15" class="edge">
<title>Main.main&#45;&gt;Librarian.constructor</title>
<path fill="none" stroke="black" d="M70.41,-391C101.41,-391 153.2,-391 189.59,-391"/>
<polygon fill="black" stroke="black" points="189.3,-394.5 199.3,-391 189.3,-387.5 189.3,-394.5"/>
</g>
<!-- Main.main&#45;&gt;Librarian.updateTitle -->
<g id="edge16" class="edge">
<title>Main.main&#45;&gt;Librarian.updateTitle</title>
<path fill="none" stroke="black" d="M70.41,-397.07C101.46,-404.2 153.34,-416.13 189.74,-424.49"/>
<polygon fill="black" stroke="black" points="188.49,-427.79 199.02,-426.62 190.06,-420.97 188.49,-427.79"/>
</g>
<!-- Main.main&#45;&gt;Library.addItem -->
<g id="edge18" class="edge">
<title>Main.main&#45;&gt;Library.addItem</title>
<path fill="none" stroke="black" d="M53.66,-372.51C74.97,-335.34 129.11,-250.76 192,-196.5 193.1,-195.56 194.24,-194.63 195.41,-193.73"/>
<polygon fill="black" stroke="black" points="197.28,-196.69 203.64,-188.22 193.38,-190.88 197.28,-196.69"/>
</g>
<!-- Main.main&#45;&gt;Library.addItem -->
<g id="edge19" class="edge">
<title>Main.main&#45;&gt;Library.addItem</title>
<path fill="none" stroke="black" d="M55.87,-372.76C78.53,-336.82 131.18,-255.98 192,-203.5 193.1,-202.56 194.24,-201.63 195.41,-200.73"/>
<polygon fill="black" stroke="black" points="197.36,-203.64 203.65,-195.11 193.41,-197.86 197.36,-203.64"/>
</g>
<!-- Main.main&#45;&gt;Library.constructor -->
<g id="edge17" class="edge">
<title>Main.main&#45;&gt;Library.constructor</title>
<path fill="none" stroke="black" d="M64.03,-372.81C97.42,-342.47 164.59,-281.45 202.81,-246.72"/>
<polygon fill="black" stroke="black" points="204.79,-249.65 209.84,-240.34 200.09,-244.47 204.79,-249.65"/>
</g>
<!-- Main.main&#45;&gt;Library.listItems -->
<g id="edge20" class="edge">
<title>Main.main&#45;&gt;Library.listItems</title>
<path fill="none" stroke="black" d="M51.72,-372.77C70.4,-330.37 121.76,-223.7 192,-157 193.2,-155.86 194.47,-154.76 195.79,-153.69"/>
<polygon fill="black" stroke="black" points="197.58,-156.71 203.79,-148.13 193.58,-150.97 197.58,-156.71"/>
</g>
<!-- Main.main&#45;&gt;LibraryItem.getDescription -->
<g id="edge21" class="edge">
<title>Main.main&#45;&gt;LibraryItem.getDescription</title>
<path fill="none" stroke="black" d="M49.5,-409.32C64.09,-454.19 108.47,-569.19 192,-614 270.61,-656.17 303.92,-591.42 385.2,-542.49"/>
<polygon fill="black" stroke="black" points="386.61,-545.72 393.5,-537.67 383.1,-539.66 386.61,-545.72"/>
</g>
<!-- Main.main&#45;&gt;List.iterator -->
<g id="edge22" class="edge">
<title>Main.main&#45;&gt;List.iterator</title>
<path fill="none" stroke="black" d="M47,-372.75C56.71,-320.26 92.65,-168.72 192,-108 224.93,-87.87 335.68,-95.76 394.75,-101.7"/>
<polygon fill="black" stroke="black" points="394.37,-105.18 404.68,-102.74 395.1,-98.22 394.37,-105.18"/>
</g>
<!-- Main.main&#45;&gt;Magazine.constructor -->
<g id="edge23" class="edge">
<title>Main.main&#45;&gt;Magazine.constructor</title>
<path fill="none" stroke="black" d="M59.04,-409.12C83.17,-437.49 133.06,-493.37 192.29,-539.52"/>
<polygon fill="black" stroke="black" points="189.82,-542.04 199.89,-545.34 194.08,-536.48 189.82,-542.04"/>
</g>
<!-- Member.constructor -->
<g id="node20" class="node">
<title>Member.constructor</title>
<polygon fill="none" stroke="black" points="263,-324 201.25,-324 201.25,-288 263,-288 263,-324"/>
<text xml:space="preserve" text-anchor="middle" x="232.12" y="-302.12" font-family="Times,serif" font-size="10.00">constructor</text>
</g>
<!-- Main.main&#45;&gt;Member.constructor -->
<g id="edge24" class="edge">
<title>Main.main&#45;&gt;Member.constructor</title>
<path fill="none" stroke="black" d="M70.41,-379C101.68,-364.8 154.09,-340.99 190.53,-324.44"/>
<polygon fill="black" stroke="black" points="191.78,-327.72 199.44,-320.39 188.89,-321.34 191.78,-327.72"/>
</g>
<!-- PrintStream.println -->
<g id="node22" class="node">
<title>PrintStream.println</title>
<polygon fill="none" stroke="black" points="259.12,-52 205.12,-52 205.12,-16 259.12,-16 259.12,-52"/>
<text xml:space="preserve" text-anchor="middle" x="232.12" y="-30.12" font-family="Times,serif" font-size="10.00">println</text>
</g>
<!-- Main.main&#45;&gt;PrintStream.println -->
<g id="edge25" class="edge">
<title>Main.main&#45;&gt;PrintStream.println</title>
<path fill="none" stroke="black" d="M52.02,-372.7C73.03,-325.27 132.18,-194.91 192,-92 197.89,-81.87 204.9,-71.13 211.34,-61.69"/>
<polygon fill="black" stroke="black" points="214.1,-63.86 216.93,-53.64 208.35,-59.87 214.1,-63.86"/>
</g>
<!-- Member.constructor&#45;&gt;User.constructor -->
<g id="edge26" class="edge">
<title>Member.constructor&#45;&gt;User.constructor</title>
<path fill="none" stroke="black" d="M263.42,-315.26C297.65,-325.73 353.54,-342.82 391.64,-354.47"/>
<polygon fill="black" stroke="black" points="390.33,-357.73 400.92,-357.31 392.38,-351.03 390.33,-357.73"/>
</g>
<!-- User.constructor&#45;&gt;Object.constructor -->
<g id="edge27" class="edge">
<title>User.constructor&#45;&gt;Object.constructor</title>
<path fill="none" stroke="black" d="M464.58,-367C498.18,-367 552.89,-367 590.54,-367"/>
<polygon fill="black" stroke="black" points="590.12,-370.5 600.12,-367 590.12,-363.5 590.12,-370.5"/>
</g>
</g>
</svg>
